<svg width="567" height="517" viewBox="0 0 567 517" fill="none" xmlns="http://www.w3.org/2000/svg">
<path d="M0.100679 301.688C1.32154 276.639 8.87976 254.539 23.9233 235.249C26.6249 231.785 26.9003 229.115 25.7897 224.751C20.6874 204.699 23.4543 184.922 30.2417 165.733C40.2381 137.472 57.5776 114.625 82.3188 97.5269C84.5658 95.974 86.8593 94.3737 87.507 91.5854C91.5667 74.1083 102.808 61.1223 114.926 48.9935C138.26 25.6385 165.962 9.67979 198.405 2.62921C211.865 -0.295976 225.534 -1.00852 239.172 1.65975C265.535 6.81729 280.901 25.7913 280.979 53.9388C281.141 112.387 281.034 170.837 281.042 229.286C281.05 300.696 281.08 372.107 281.059 443.518C281.054 458.454 277.759 472.451 269.823 485.391C257.619 505.289 239.094 514.11 216.812 516.152C191.653 518.457 168.744 512.675 149.452 495.506C147.546 493.81 145.457 492.891 142.848 492.817C106.401 491.782 68.1043 457.306 60.5569 418.29C58.6148 408.25 54.628 403.006 45.6704 397.845C23.3371 384.978 11.6466 363.425 4.5006 339.327C0.93764 327.312 -0.39789 314.936 0.100679 301.688ZM178.625 483.394C176.357 484.916 173.232 485.403 171.967 488.486C175.307 491.385 179.229 492.334 182.856 493.528C212.685 503.343 242.259 494.729 254.926 466.444C263.639 446.987 258.978 426.207 259.805 404.5C246.592 411.634 234.249 413.551 221.256 408.934C211.803 405.574 204.412 399.992 200.465 390.617C198.39 385.69 199.821 381.5 204.551 378.692C209.078 376.004 212.413 377.849 215.316 381.519C216.677 383.24 218.027 385.035 219.679 386.449C228.014 393.587 237.39 395.726 247.573 391.077C256.915 386.813 260.052 378.994 260.007 368.978C259.8 322.027 259.907 275.074 259.819 228.122C259.813 225.173 260.762 221.894 258 218.682C250.364 226.097 242.401 232.339 232.565 236.027C222.979 239.621 212.837 240.506 201.985 242.688C209.982 254.729 211.4 267.365 210.621 280.552C209.401 301.18 193.066 318.715 172.655 320.949C167.282 321.536 162.435 320.173 160.685 314.787C158.834 309.089 164.114 307.974 167.845 306.552C183.184 300.707 189.429 285.218 188.823 272.551C188.026 255.856 181.595 241.215 164.472 234.937C149.421 229.42 137.219 220.559 128.326 207.478C116.762 190.47 113.718 171.986 121.159 152.421C123.519 146.215 129.122 143.599 134.767 145.669C140.917 147.924 141.671 152.684 139.819 158.256C135.448 171.409 138.822 183.266 145.957 194.409C161.862 219.248 200.714 229.021 229.142 214.841C248.892 204.99 259.961 189.066 259.915 166.363C259.887 152.669 259.968 138.974 259.828 125.281C259.803 122.79 260.819 119.848 258.095 117.803C251.657 119.232 245.935 122.99 239.11 123.085C234.344 123.151 230.065 122.899 229.153 117.057C228.236 111.193 232.085 109.872 236.804 108.508C248.904 105.011 258.2 98.0642 259.37 84.5416C260.378 72.887 260.108 61.1702 259.053 49.4289C257.825 35.773 247.393 24.9893 232.34 22.186C223.716 20.5799 214.797 20.8705 206.055 22.346C180.982 26.5779 159.548 38.5165 140.349 54.5311C131.476 61.932 122.947 69.9865 115.541 81.3825C125.575 79.3363 133.799 77.1929 142.338 77.0054C160.715 76.602 177.133 80.9277 190.139 94.9243C202.51 108.237 206.971 128.531 200.197 142.363C193.825 155.375 174.1 159.333 164.626 149.492C162.295 147.071 160.725 144.303 162.197 140.91C163.522 137.857 166.385 137.982 169.14 138.169C178.336 138.792 183.582 132.942 181.645 123.834C180.356 117.772 177.665 112.391 173 108.001C160.11 95.8746 144.398 95.6091 128.889 99.0563C90.3116 107.631 52.9547 146.748 46.3704 192.69C45.2824 200.281 43.5286 207.958 45.4675 215.76C48.4928 215.755 50.0899 213.666 52.0678 212.385C64.8077 204.137 78.5348 198.77 93.8073 197.75C99.697 197.357 105.069 198.551 106.138 205.18C107.172 211.596 102.442 214.047 96.9886 215.415C91.552 216.779 85.9684 217.856 80.7944 219.922C15.8229 245.87 5.96642 327.286 47.0586 371.898C50.4142 375.541 53.541 379.788 59.3044 381.432C63.7866 363.642 73.292 349.55 87.8837 338.883C87.0551 337.082 86.5607 335.721 85.8437 334.49C75.2053 316.228 75.5666 298.265 87.4284 280.712C92.611 273.042 99.0567 266.719 108.441 264.601C113.28 263.509 118.067 264.404 120.266 269.512C122.392 274.448 120.526 278.529 116.054 281.469C91.1649 297.826 99.9904 330.136 120.864 340.351C132.279 345.938 144.077 349.17 156.943 347.165C161.524 346.452 166.172 346.01 170.804 345.835C174.759 345.685 178.161 347.265 179.363 351.353C180.608 355.584 179.099 359.158 175.326 361.427C173.26 362.669 170.938 363.714 168.594 364.236C147.339 368.976 126.73 367.499 107.69 356.258C103.3 353.665 100.799 354.233 97.5944 357.298C89.4302 365.109 83.5037 374.247 81.4667 385.443C76.7057 411.609 85.3989 433.762 103.373 452.272C115.39 464.647 129.855 473.153 148.078 472.691C160.078 472.387 170.227 467.596 179.53 460.301C184.067 456.743 189.316 456.418 193.333 461.04C197.481 465.813 194.718 470.452 191.079 473.941C187.591 477.284 184.057 480.782 178.625 483.394Z" fill="black"/>
<path d="M299.624 15.1215C318.606 -0.341212 340.135 -2.23621 362.497 1.94124C404.683 9.82199 438.405 31.8933 465.101 65.0922C467.839 68.4967 471.202 72.2181 471.978 76.2357C475.11 92.4642 488.391 100.071 498.994 110.114C528.761 138.312 544.698 172.385 542.322 214.032C542.252 215.251 542.562 216.69 542.025 217.654C536.486 227.607 542.124 234.51 547.568 242.318C576.734 284.154 572.559 346.072 538.468 383.845C531.501 391.564 523.366 397.787 513.824 401.948C510.296 403.486 509.081 405.536 508.34 409.437C500.754 449.376 479.092 478.104 439.302 489.808C426.599 493.544 415.137 497.814 403.896 505.027C375.025 523.553 330.772 519.891 307.913 498.798C291.005 483.196 285.547 463.423 285.649 441.204C285.864 394.537 285.748 347.869 285.788 301.201C285.849 230.546 286.058 159.89 285.903 89.2353C285.867 72.8777 285.111 56.5403 287.421 40.2675C288.771 30.7558 292.985 22.647 299.624 15.1215ZM394.248 304.806C395.822 305.472 397.358 306.255 398.977 306.779C401.881 307.721 404.837 308.81 404.891 312.375C404.95 316.301 402.256 318.42 398.842 319.799C395.053 321.331 391.288 321.218 387.357 320.289C362.455 314.408 351.671 289.092 354.384 267.569C355.514 258.605 358.808 250.383 363.203 241.968C352.299 240.14 342.292 239.425 332.85 235.802C323.49 232.212 315.803 226.061 307.06 218.396C307.06 223.467 307.061 226.611 307.059 229.756C307.039 270.346 307.059 310.937 306.961 351.527C306.942 359.588 306.682 367.631 307.313 375.694C307.821 382.182 310.997 386.699 316.414 389.82C327.81 396.385 341.09 393.847 349.238 383.423C352.811 378.853 356.392 374.91 362.58 379.084C367.225 382.217 367.967 388.087 364.188 394.159C358.463 403.357 350.151 408.664 339.358 410.636C328.638 412.595 318.678 409.748 307.202 406.216C307.261 423.848 304.925 440.846 308.767 457.167C317.296 493.395 350.958 503.838 384.848 493.286C387.82 492.361 391.285 491.591 393.872 488.552C386.012 483.095 377.728 479.053 372.247 471.566C367.86 465.574 370.787 458.437 378.042 457.23C381.895 456.589 384.467 458.85 387.21 460.933C400.329 470.892 414.764 475.53 431.193 471.261C451.3 466.036 465.629 453.184 476.022 435.838C490.608 411.495 489.295 380.817 473.447 362.254C465.818 353.319 465.102 353.378 454.741 358.601C435.459 368.319 415.363 369.192 394.949 362.853C389.937 361.297 384.933 358.092 386.56 351.787C388.125 345.722 393.192 344.852 398.936 346.14C410.853 348.811 422.758 348.141 434.47 344.955C453.506 339.778 465.504 325.176 465.533 307.989C465.555 295.472 459.283 286.746 449.485 280.016C445.731 277.437 443.047 274.418 444.85 269.663C446.746 264.668 451.119 263.898 455.787 264.393C462.393 265.093 467.798 268.354 472.469 272.868C489.879 289.694 493.548 310.785 482.056 332.169C479.043 337.775 480.095 340.708 484.55 344.409C494.357 352.556 501.074 362.945 505.145 375.059C505.947 377.443 505.903 380.378 509.291 382.317C537.564 357.28 549.381 326.042 542.199 289.09C534.436 249.147 509.219 224.84 469.654 215.485C464.238 214.204 459.246 212.169 460.007 205.702C460.798 198.971 466.217 197.621 472.111 197.904C484.042 198.478 495.145 201.993 505.651 207.517C510.333 209.978 514.932 212.596 519.513 215.112C521.695 212.523 521.145 209.977 521.106 207.633C520.48 170.055 503.752 140.51 474.855 117.652C456.997 103.526 437.139 94.5882 413.224 97.8374C397.749 99.9398 384.285 111.981 383.886 125.789C383.624 134.856 386.842 138.168 395.84 138.109C398.747 138.091 402.036 137.485 403.469 140.944C404.923 144.455 402.714 147.043 400.513 149.394C392.833 157.595 376.58 156.085 368.483 146.525C360.276 136.834 360.603 125.685 363.899 114.618C371.256 89.9148 395.192 75.3333 423.51 77.1947C432.074 77.7576 440.453 79.898 450.227 80.7938C441.311 67.3492 430.713 57.6393 418.964 49.2994C394.603 32.0075 368.575 19.3343 337.437 21.6416C320.61 22.8884 308.212 34.2511 307.62 50.2322C307.177 62.1968 307.416 74.1888 307.454 86.1682C307.479 93.8251 310.735 99.8334 317.203 104C320.931 106.403 324.924 108.141 329.367 108.844C333.269 109.462 335.475 111.72 335.279 115.879C335.084 119.984 332.533 122.04 328.843 122.711C325.953 123.236 323.019 123.032 320.141 122.139C316.016 120.86 311.845 119.731 307.885 118.592C305.791 120.756 306.226 123.066 306.238 125.195C306.317 139.117 306.632 153.039 306.575 166.96C306.507 183.688 312.569 197.539 325.72 207.903C349.903 226.962 386.674 225.489 410.23 204.706C423.923 192.625 430.517 177.875 425.961 159.557C424.487 153.628 424.331 148.776 430.603 146.054C436.202 143.623 441.988 146.391 445.046 152.635C449.921 162.59 449.538 173.27 447.598 183.553C442.743 209.291 425.428 224.76 402.34 234.246C386.359 240.812 379.168 253.548 376.953 269.111C374.881 283.674 380.499 295.974 394.248 304.806Z" fill="black"/>
</svg>
