<svg width="582" height="627" viewBox="0 0 582 627" fill="none" xmlns="http://www.w3.org/2000/svg">
<path d="M128.053 57.8701C106.553 57.8701 85.0532 57.8785 63.5532 57.8675C45.2763 57.8581 30.0454 64.487 18.5894 78.8989C11.429 87.9068 7.55841 98.2406 7.55502 109.87C7.54864 131.703 7.38171 153.539 7.66256 175.369C7.742 181.545 7.79766 187.7 7.7824 193.871C7.47601 318.037 7.51434 442.203 7.60598 566.37C7.61654 580.7 13.527 592.602 23.4735 602.947C34.9691 614.903 48.8761 618.986 65.0533 618.968C216.886 618.803 368.72 618.791 520.553 618.951C544.667 618.976 567.502 599.944 572.041 576.368C573.056 571.091 573.573 565.764 573.572 560.37C573.548 438.37 573.675 316.37 573.263 194.371C573.237 186.697 573.599 179.037 573.574 171.37C573.511 151.704 573.717 132.035 573.514 112.371C573.23 84.8607 554.898 63.3448 527.544 58.4229C524.447 57.8658 521.22 57.8986 518.053 57.8924C496.387 57.8499 474.72 57.8701 453.053 57.8701" stroke="black" stroke-width="15" stroke-linecap="round" stroke-linejoin="round"/>
<path d="M571.053 184.87C384.053 184.87 197.053 184.87 10.0532 184.87" stroke="black" stroke-width="15" stroke-linecap="round" stroke-linejoin="round"/>
<path d="M412.553 57.8701C331.22 57.8701 249.887 57.8701 168.553 57.8701" stroke="black" stroke-width="15" stroke-linecap="round" stroke-linejoin="round"/>
<path d="M151.053 266.87C149.449 262.043 146.184 260.189 141.052 260.29C128.557 260.536 116.053 260.345 103.553 260.381C97.4336 260.398 95.0794 262.75 95.0639 268.87C95.0296 282.37 95.0242 295.87 95.0677 309.37C95.0848 314.703 97.4297 317.299 102.553 317.337C116.053 317.435 129.554 317.432 143.053 317.338C148.138 317.302 151.022 314.152 151.039 308.87C151.082 295.037 151.053 281.203 151.053 267.37" stroke="black" stroke-width="14" stroke-linecap="round" stroke-linejoin="round"/>
<path d="M432.553 108.87C440.048 108.195 446.087 105.383 449.075 97.8787C450.173 95.1211 450.562 92.2966 450.557 89.37C450.545 82.5367 450.903 75.679 450.428 68.8788C450.121 64.4888 453.059 60.3416 451.818 56.4449C450.512 52.3427 450.744 48.4035 450.567 44.3694C450.246 37.0406 451.02 29.6971 450.086 22.3659C449.179 15.2501 443.093 8.34268 436.553 7.37009C427.037 5.95487 419.747 9.76752 416.562 17.8736C415.557 20.4334 414.951 23.0409 415.006 25.8709C415.148 33.0348 415.42 40.2276 414.948 47.3631C414.494 54.2285 414.048 60.9631 414.878 67.891C415.685 74.6277 415.125 81.5377 415.029 88.3697C414.962 93.0714 415.733 97.4637 418.542 101.378C421.633 105.684 425.533 108.402 431.053 108.426C431.906 108.43 432.864 109.095 432.553 110.37" stroke="black" stroke-width="14" stroke-linecap="round" stroke-linejoin="round"/>
<path d="M149.053 108.87C161.288 106.495 166.053 100.608 166.053 87.87C166.053 81.2034 165.166 74.3828 166.288 67.9107C167.561 60.5677 166.011 53.5368 166.046 46.37C166.08 39.2035 166.058 32.0367 166.052 24.87C166.046 16.5956 159.993 8.75378 152.553 7.36999C143.373 5.66244 135.544 9.95712 131.978 18.338C131.181 20.2117 131.063 21.9841 131.059 23.87C131.045 31.5366 130.98 39.2044 131.089 46.8695C131.134 49.9993 130.774 52.9958 129.542 55.865C129.122 56.8422 128.125 57.45 128.996 58.9044C131.778 63.5504 131.018 68.7891 131.046 73.8701C131.077 79.3699 131.053 84.87 131.053 90.37C131.053 100.673 136.319 106.784 146.552 108.375C147.678 108.55 148.913 108.677 148.553 110.37" stroke="black" stroke-width="14" stroke-linecap="round" stroke-linejoin="round"/>
<path d="M441.553 488.87C433.762 490.664 433.668 493.747 433.605 498.871C433.448 511.535 433.513 524.204 433.572 536.87C433.598 542.245 436.627 545.711 442.054 545.8C455.218 546.016 468.391 546.079 481.551 545.78C487.907 545.635 490.041 542.829 490.049 536.37C490.064 523.703 490.065 511.037 490.048 498.37C490.039 491.54 487.52 488.937 480.553 488.893C467.72 488.813 454.887 488.87 442.053 488.87" stroke="black" stroke-width="15" stroke-linecap="round" stroke-linejoin="round"/>
<path d="M328.553 488.87C322.153 490.688 320.587 492.675 320.565 499.37C320.524 511.37 320.685 523.372 320.504 535.369C320.397 542.422 324.001 546.028 331.054 545.92C342.885 545.738 354.72 545.862 366.553 545.873C375.388 545.88 377.337 541.891 377.152 535.367C376.808 523.21 376.859 511.032 377.132 498.872C377.277 492.383 375.226 489.033 367.053 488.9C358.722 488.764 350.387 488.87 342.053 488.87C337.72 488.87 333.387 488.87 329.053 488.87" stroke="black" stroke-width="15" stroke-linecap="round" stroke-linejoin="round"/>
<path d="M215.553 488.87C209.399 490.618 208.516 491.829 208.028 497.868C207.019 510.362 207.681 522.871 207.609 535.37C207.565 543.038 210.382 545.756 218.054 545.837C230.052 545.963 242.055 545.982 254.053 545.828C261.189 545.736 264.448 543.425 264.169 535.366C263.732 522.714 264.069 510.037 264.046 497.37C264.036 492.062 262.446 490.485 257.074 489.278C255.356 488.893 253.718 488.903 252.053 488.896C240.053 488.847 228.053 488.87 216.053 488.87" stroke="black" stroke-width="15" stroke-linecap="round" stroke-linejoin="round"/>
<path d="M102.553 488.87C96.0902 490.706 95.0549 492.013 95.0538 498.37C95.0517 511.203 95.0472 524.037 95.0559 536.87C95.0599 542.674 97.4355 545.701 103.054 545.797C116.217 546.024 129.392 546.09 142.551 545.777C149.115 545.621 151.051 543.006 151.053 536.37C151.055 523.703 151.055 511.037 151.053 498.37C151.051 491.55 148.541 488.937 141.553 488.893C128.72 488.812 115.887 488.87 103.053 488.87" stroke="black" stroke-width="14" stroke-linecap="round" stroke-linejoin="round"/>
<path d="M440.053 374.37C435.043 375.317 433.637 379.036 433.598 383.37C433.476 396.869 433.469 410.371 433.601 423.87C433.644 428.241 436.697 431.284 441.054 431.324C454.886 431.449 468.721 431.449 482.553 431.323C486.763 431.284 490.002 427.727 490.026 423.37C490.1 409.704 490.11 396.036 490.023 382.37C489.991 377.514 486.614 374.404 481.553 374.386C467.887 374.339 454.22 374.37 440.553 374.37" stroke="black" stroke-width="14" stroke-linecap="round" stroke-linejoin="round"/>
<path d="M327.053 374.37C322.212 375.439 320.594 378.914 320.574 383.37C320.515 396.37 320.376 409.374 320.625 422.369C320.757 429.306 323.268 431.368 330.053 431.369C342.553 431.372 355.053 431.378 367.553 431.367C374.263 431.361 377.045 428.58 377.05 421.87C377.061 409.037 377.07 396.203 377.045 383.37C377.034 377.715 373.708 374.388 368.053 374.378C354.553 374.354 341.053 374.37 327.553 374.37" stroke="black" stroke-width="14" stroke-linecap="round" stroke-linejoin="round"/>
<path d="M214.053 374.37C209.952 375.46 208.21 378.08 207.987 382.367C207.378 394.034 207.604 405.702 207.578 417.37C207.573 419.703 207.803 422.046 208.071 424.368C208.62 429.129 210.826 431.308 215.553 431.339C229.053 431.427 242.554 431.42 256.053 431.344C260.931 431.316 264 428.243 264.027 423.37C264.102 409.87 264.088 396.37 264.036 382.87C264.016 377.508 260.915 374.407 255.553 374.387C241.887 374.336 228.22 374.37 214.553 374.37" stroke="black" stroke-width="14" stroke-linecap="round" stroke-linejoin="round"/>
<path d="M101.053 374.37C96.3849 375.591 94.9456 378.77 94.9987 383.371C95.1526 396.702 95.0373 410.037 95.0609 423.37C95.0707 428.88 97.4535 431.324 103.053 431.35C116.386 431.412 129.72 431.412 143.053 431.35C148.653 431.324 151.036 428.88 151.046 423.37C151.069 410.037 151.072 396.703 151.045 383.37C151.033 377.293 148.131 374.391 142.053 374.378C128.553 374.352 115.053 374.37 101.553 374.37" stroke="black" stroke-width="14" stroke-linecap="round" stroke-linejoin="round"/>
<path d="M440.053 260.37C435.037 261.587 433.516 265.133 433.536 269.87C433.587 282.537 433.497 295.204 433.576 307.87C433.619 314.743 436.315 317.357 443.053 317.365C455.72 317.382 468.387 317.389 481.053 317.362C487.131 317.349 490.032 314.448 490.045 308.37C490.072 295.37 490.07 282.37 490.045 269.37C490.035 263.715 486.708 260.388 481.053 260.378C467.553 260.354 454.053 260.37 440.553 260.37" stroke="black" stroke-width="14" stroke-linecap="round" stroke-linejoin="round"/>
<path d="M327.053 260.37C321.857 262.491 320.358 266.475 320.474 271.872C320.729 283.7 320.519 295.537 320.566 307.37C320.596 314.897 323.113 317.366 330.553 317.369C343.053 317.374 355.553 317.387 368.053 317.362C373.708 317.351 377.035 314.025 377.046 308.37C377.07 295.37 377.07 282.37 377.046 269.37C377.035 263.715 373.708 260.388 368.053 260.378C354.553 260.354 341.053 260.37 327.553 260.37" stroke="black" stroke-width="14" stroke-linecap="round" stroke-linejoin="round"/>
<path d="M214.053 260.37C208.5 261.502 207.695 265.959 207.625 270.371C207.422 283.035 207.376 295.707 207.624 308.369C207.759 315.254 210.432 317.366 217.553 317.369C229.887 317.374 242.22 317.378 254.553 317.367C261.275 317.361 264.045 314.592 264.05 307.87C264.061 295.037 264.07 282.203 264.045 269.37C264.034 263.715 260.708 260.388 255.053 260.378C241.553 260.354 228.053 260.37 214.553 260.37" stroke="black" stroke-width="14" stroke-linecap="round" stroke-linejoin="round"/>
</svg>
