<svg width="423" height="560" viewBox="0 0 423 560" fill="none" xmlns="http://www.w3.org/2000/svg">
<path d="M283.985 15.5049C280.697 11.5306 276.397 9.99609 271.34 10C234.11 10.0288 196.88 10.0156 159.65 10.0156C122.279 10.0156 84.9086 10.0191 47.538 10.0119C41.7415 10.0108 35.9127 10.484 30.7161 13.0468C16.8661 19.8774 10.1332 31.5697 10.0945 46.7519C9.93365 109.949 10.0269 173.146 10.0269 236.344C10.0269 328.114 10.0148 419.884 10.0395 511.654C10.0433 525.719 15.1315 537.279 27.3262 544.981C34.1171 549.271 41.8172 550.226 49.6413 549.959C50.9998 549.912 52.4639 549.685 53.8601 549.685C161.757 549.654 269.654 549.656 377.552 549.656C395.972 549.656 409.174 538.279 412.194 520.112C412.713 516.994 412.953 513.929 412.953 510.809C412.956 391.593 412.943 272.376 413 153.16C413.002 148.24 411.79 144.014 408.33 140.481C407.759 139.898 406.972 139.508 407.024 138.379C407.299 132.335 403.102 128.661 399.428 124.908C388.44 113.68 377.248 102.653 366.177 91.5058C344.525 69.7057 322.909 47.8694 301.254 26.0717C298.522 23.3207 295.822 20.4851 292.778 18.112C290.438 16.2877 287.567 15.1767 284.406 15.5049" stroke="black" stroke-width="20" stroke-linecap="round" stroke-linejoin="round"/>
<path d="M344.255 431.003C255.043 431.003 165.831 431.003 76.6196 431.003" stroke="black" stroke-width="20" stroke-linecap="round" stroke-linejoin="round"/>
<path d="M344.255 285.748C259.961 285.748 175.666 285.758 91.3713 285.72C86.735 285.718 82.0989 285.325 77.4626 285.114" stroke="black" stroke-width="20" stroke-linecap="round" stroke-linejoin="round"/>
<path d="M344.255 358.375C255.746 358.375 167.236 358.375 78.7271 358.375" stroke="black" stroke-width="20" stroke-linecap="round" stroke-linejoin="round"/>
<path d="M283.563 15.9271C280.835 21.2513 280.516 26.934 280.551 32.8177C280.697 57.3075 280.497 81.7995 280.652 106.289C280.764 123.986 290.692 136.391 305.497 141.283C309.54 142.618 313.89 142.56 318.124 142.572C342.71 142.637 367.296 142.513 391.881 142.676C397.105 142.71 401.97 141.903 406.633 139.648" stroke="black" stroke-width="20" stroke-linecap="round" stroke-linejoin="round"/>
<path d="M217.813 213.964C175.806 213.964 133.8 213.984 91.7928 213.936C87.0158 213.931 82.2393 213.542 77.4626 213.331" stroke="black" stroke-width="20" stroke-linecap="round" stroke-linejoin="round"/>
</svg>
