<svg width="423" height="560" viewBox="0 0 423 560" fill="none" xmlns="http://www.w3.org/2000/svg">
<path d="M271.333 7.62939e-06C277.216 -0.00448576 283.158 1.52281 288.168 5.62012C292.397 6.17135 296.06 7.99083 298.927 10.2256C302.601 13.0902 305.855 16.5142 308.349 19.0244C329.948 40.7668 351.691 62.7306 373.272 84.459C384.225 95.4868 395.569 106.666 406.575 117.913C408.829 120.216 415.615 125.936 416.843 134.992C421.538 140.569 423.003 146.994 423 153.165C422.943 272.378 422.956 391.591 422.953 510.81C422.953 514.454 422.671 518.068 422.059 521.753C420.21 532.869 415.125 542.473 407.148 549.296C399.162 556.126 388.877 559.656 377.552 559.656C269.654 559.656 161.759 559.654 53.8634 559.685C53.6483 559.685 53.3222 559.703 52.6144 559.766C52.0502 559.815 51.0015 559.918 49.9825 559.953C41.2299 560.252 31.1998 559.256 21.9865 553.437C6.3782 543.579 0.0437517 528.497 0.0391846 511.656C0.0144882 419.885 0.0264893 328.112 0.0264893 236.344C0.0264892 173.166 -0.0660766 109.94 0.0948486 46.7266C0.142539 27.9889 8.82428 12.6935 26.2931 4.07813C33.6407 0.454486 41.4059 0.0105596 47.5402 0.0117264C84.9094 0.0188903 122.279 0.0156326 159.651 0.0156326C196.885 0.0156327 234.108 0.0288169 271.333 7.62939e-06ZM271.348 20C234.113 20.0288 196.876 20.0156 159.651 20.0156C122.281 20.0156 84.9081 20.0189 47.5363 20.0117C42.0777 20.0107 38.1851 20.5139 35.1398 22.0156C24.9087 27.0614 20.1244 35.1507 20.0948 46.7774C19.934 109.957 20.0265 173.127 20.0265 236.344C20.0265 328.115 20.0145 419.882 20.0392 511.65C20.0422 522.94 23.8853 530.98 32.6661 536.526C37.0342 539.285 42.4046 540.2 49.2999 539.965L49.8859 539.928C50.1259 539.908 50.4306 539.88 50.8585 539.843C51.5712 539.78 52.6765 539.685 53.8575 539.685C161.756 539.654 269.655 539.656 377.552 539.656C384.647 539.656 390.174 537.498 394.149 534.098C398.132 530.691 401.158 525.522 402.33 518.472C402.755 515.919 402.953 513.404 402.953 510.809L402.956 331.983C402.96 272.374 402.972 212.765 403 153.155C403 152.542 402.972 151.995 402.921 151.503C399.204 152.377 395.488 152.699 391.816 152.675H391.815C367.229 152.512 342.813 152.637 318.098 152.571C314.332 152.561 308.225 152.715 302.36 150.777C283.542 144.56 270.791 128.404 270.651 106.353C270.574 94.0652 270.585 81.7831 270.598 69.543C270.61 57.2909 270.625 45.0807 270.552 32.877C270.529 29.0996 270.614 24.6568 271.618 20.0039C271.53 20.0025 271.44 19.9999 271.348 20ZM290.591 29.54C290.556 30.5337 290.544 31.6019 290.551 32.7578C290.624 45.0436 290.61 57.325 290.598 69.5635C290.585 81.814 290.574 94.0235 290.651 106.226C290.736 119.567 297.842 128.221 308.635 131.787C310.855 132.521 313.449 132.559 318.151 132.571C342.607 132.636 367.363 132.513 391.947 132.676L392.708 132.673C392.818 132.671 392.927 132.668 393.035 132.665C392.805 132.432 392.555 132.182 392.281 131.902C382.683 122.094 373.03 112.543 363.271 102.761L359.082 98.5527C342.79 82.1492 326.629 65.8372 310.408 49.4873L294.16 33.1191C292.84 31.7898 291.681 30.6088 290.591 29.54Z" fill="#CACACA"/>
<path d="M344.256 421.003C349.779 421.003 354.256 425.48 354.256 431.003C354.256 436.526 349.779 441.003 344.256 441.003H76.6204C71.0975 441.003 66.6194 436.526 66.6194 431.003C66.6195 425.48 71.0976 421.003 76.6204 421.003H159.777C168.783 428.872 182.288 428.89 191.319 421.003H344.256ZM107.308 368.375H78.7278C73.2049 368.375 68.7278 363.898 68.7278 358.375C68.728 352.852 73.2051 348.375 78.7278 348.375H87.5569L107.308 368.375ZM176.364 368.375H174.77L155.019 348.375H196.616L176.364 368.375ZM227.601 368.375H227.6L247.852 348.375H247.853L227.601 368.375ZM344.256 348.375C349.779 348.375 354.256 352.853 354.256 358.375C354.256 363.898 349.779 368.375 344.256 368.375H244.678L264.93 348.375H344.256ZM77.9182 275.125C83.097 275.361 87.02 275.719 91.3762 275.721C150.971 275.747 210.565 275.749 270.161 275.748L249.908 295.748C197.062 295.748 144.215 295.744 91.3674 295.721C86.4513 295.719 81.1014 295.29 77.0081 295.104C71.491 294.852 67.2226 290.176 67.4739 284.659C67.7253 279.142 72.4012 274.874 77.9182 275.125ZM321.396 275.748L301.144 295.748H301.143L321.395 275.748H321.396ZM344.256 275.748C349.779 275.748 354.256 280.225 354.256 285.748C354.256 291.27 349.779 295.748 344.256 295.748C335.578 295.748 326.899 295.748 318.221 295.748L338.474 275.748C340.401 275.748 342.329 275.748 344.256 275.748ZM77.9045 203.341C83.1952 203.575 87.296 203.931 91.8049 203.937C133.804 203.985 175.801 203.965 217.814 203.965C223.336 203.965 227.814 208.442 227.814 213.965C227.813 219.487 223.336 223.965 217.814 223.965C175.813 223.965 133.796 223.985 91.7815 223.937C86.737 223.931 81.2842 223.51 77.0217 223.321C71.5043 223.077 67.2291 218.407 67.4729 212.89C67.7168 207.372 72.3872 203.097 77.9045 203.341Z" fill="#CACACA"/>
<path d="M317.651 248.461C322.366 243.804 329.965 243.852 334.621 248.567C339.278 253.283 339.23 260.881 334.515 265.538L186.009 412.192C181.293 416.849 173.696 416.801 169.039 412.086C168.548 411.589 168.11 411.059 167.724 410.505C166.777 409.97 165.885 409.3 165.083 408.487L96.4622 339C91.8053 334.284 91.853 326.687 96.5686 322.03C101.284 317.373 108.882 317.421 113.538 322.137L177.48 386.885L317.651 248.461Z" fill="black"/>
</svg>
