<svg width="571" height="597" viewBox="0 0 571 597" fill="none" xmlns="http://www.w3.org/2000/svg">
<path d="M201.932 30.8984C180.709 27.1432 159.966 23.4961 139.045 21.0581C113.682 18.1025 88.2816 16.1916 62.8544 20.5034C58.6856 21.2103 54.5861 22.221 50.7825 24.1288C44.4137 27.3231 43.3868 30.6239 47.41 36.4801C53.8339 45.8307 62.8613 52.4082 72.1925 58.505C109.869 83.1218 151.217 100.026 193.31 115.156C250.199 135.605 308.527 150.95 367.959 161.936C396.215 167.16 424.772 170.186 453.492 171.911C477.128 173.331 500.609 172.895 524.011 169.327C530.075 168.403 536.037 166.918 541.785 164.733C554.279 159.986 555.226 154.161 544.574 145.849C539.753 142.088 534.389 139.023 529.283 135.627C527.852 134.675 526.299 133.833 525.081 132.653C521.8 129.474 521.016 125.638 523.419 121.695C525.821 117.754 529.883 116.245 533.901 118.149C546.097 123.929 557.862 130.69 565.895 141.902C574.919 154.496 571.693 168.065 558.479 176.417C546.303 184.112 532.544 186.626 518.631 188.452C490.542 192.139 462.455 191.245 434.293 188.728C340.843 180.375 251.091 156.679 163.606 123.742C129.48 110.894 96.1095 96.2036 65.3818 76.2467C54.1083 68.9248 43.288 60.9431 34.6542 50.4526C25.7491 39.6325 23.944 28.581 29.5295 19.2247C33.4702 12.6236 39.7835 8.99639 46.6927 6.35731C56.6253 2.56337 67.0456 0.778396 77.5936 0.318948C119.251 -1.49561 160.132 4.66945 200.799 12.7921C201.923 13.0167 203.033 13.3336 204.131 13.6686C208.682 15.0578 211.677 18.1519 211.253 22.8753C210.818 27.7208 207.796 30.8858 201.932 30.8984Z" fill="black"/>
<path d="M146.858 496.407C136.55 522.461 125.257 547.656 117.071 574.053C114.921 580.984 110.749 583.305 105.056 581.593C99.2944 579.859 97.0163 575.002 99.1125 568.219C107.215 542.002 118.036 516.814 128.406 491.459C137.864 468.333 139.867 445.128 129.098 421.835C123.49 409.707 115.304 399.302 106.592 389.311C80.4522 359.336 64.3527 324.694 58.5725 285.395C54.1703 255.465 56.2525 225.838 64.0954 196.619C64.8298 193.882 65.556 191.143 66.3798 188.054C56.6334 187.025 47.361 186.274 38.1584 185.014C28.2535 183.657 18.5262 181.481 9.97243 175.848C-1.02212 168.607 -3.07111 158.021 4.55026 147.197C9.26931 140.495 15.655 135.551 22.504 131.254C34.7158 123.593 47.647 117.308 61.0424 112.004C67.1508 109.585 72.1534 111.315 74.1303 116.184C76.4677 121.941 74.1292 126.249 67.3778 129.041C52.1229 135.349 36.9228 141.824 24.2196 152.729C17.4376 158.551 17.9554 160.763 26.4214 163.742C40.3917 168.658 54.9951 168.773 69.5422 169.371C74.0019 169.554 74.7433 166.11 76.0135 163.225C83.234 146.825 92.0843 131.427 103.693 117.695C108.223 112.337 110.962 111.772 117.122 115.011C123.039 118.121 123.978 122.319 119.682 127.583C110.787 138.483 103.627 150.474 97.1199 162.887C96.2482 164.55 94.9895 166.106 95.3324 168.606C98.2899 169.969 101.502 169.174 104.653 168.963C110.961 168.541 117.261 167.931 123.575 167.676C129.346 167.444 133.489 171.048 133.95 176.268C134.348 180.78 131.211 184.664 125.523 185.348C114.491 186.673 103.392 187.544 92.2634 187.291C88.4389 187.204 86.3391 188.452 85.1179 192.238C76.8332 217.922 73.6006 244.319 76.054 271.054C79.6659 310.415 93.8857 345.625 120.128 375.715C130.836 387.993 140.981 400.698 147.364 416.036C158.508 442.816 157.452 469.387 146.858 496.407Z" fill="black"/>
<path d="M370.135 518.775C313.549 505.641 279.699 469.082 261.37 416.191C259.869 411.859 259.408 407.36 263.38 403.982C266.433 401.384 270.017 401.321 273.631 403.11C276.486 404.523 277.516 407.143 278.48 409.915C286.467 432.896 298.199 453.657 316.268 470.219C336.033 488.335 359.22 499.255 386.176 502.073C403.044 503.836 419.902 503.41 436.756 502.955C455.248 502.454 465.688 490.588 464.56 472.237C464.314 468.226 463.699 464.226 463.641 460.216C463.535 452.746 464.837 445.652 470.765 440.321C473.091 438.229 473.648 436.47 471.675 433.493C465.661 424.413 466.325 419.047 474.515 411.355C477.573 408.483 478.033 406.318 476.021 402.55C468.921 389.258 471.448 379.797 483.924 371.562C489.201 368.079 494.862 365.134 499.921 361.371C508.031 355.336 509.129 349.613 503.78 340.985C497.002 330.05 488.795 320.128 480.77 310.094C479.452 308.446 478.224 306.717 476.807 305.16C468.132 295.634 464.437 284.937 465.087 271.63C466.078 251.345 463.534 231.111 459.505 211.148C458.282 205.089 459.634 202.204 464.477 200.914C470.729 199.249 476.482 201.8 477.895 207.157C480.24 216.055 481.215 225.211 482.193 234.321C483.767 248.983 484.725 263.703 484.249 278.471C484.138 281.914 485.357 284.736 487.441 287.443C497.151 300.052 506.831 312.687 516.359 325.434C521.699 332.578 525.831 340.301 526.044 349.567C526.307 360.956 520.764 369.322 512.126 375.933C507.87 379.19 503.338 382.109 498.8 384.973C490.439 390.251 490.399 390.187 495.301 398.584C500.708 407.846 499.214 415.55 490.727 422.259C490.135 422.727 489.614 423.285 489.193 423.677C488.632 425.692 490.087 426.71 490.834 427.956C495.436 435.626 495.406 441.585 489.201 447.788C483.665 453.321 481.957 458.914 483.071 466.824C484.83 479.306 483.551 491.678 475.734 502.536C467.175 514.427 455.077 521.039 441.115 521.691C417.618 522.788 393.936 524.079 370.135 518.775Z" fill="black"/>
<path d="M314.561 40.9415C355.317 49.9793 390.64 68.2166 420.214 97.1465C422.474 99.3577 424.327 99.9795 427.251 98.6756C437.056 94.3021 446.942 90.1062 456.819 85.8949C458.567 85.1498 460.382 84.3422 462.235 84.1094C466.974 83.5141 470.56 85.2989 472.103 90.053C473.579 94.598 471.799 98.161 467.77 100.143C459.691 104.119 451.413 107.692 443.233 111.467C441.173 112.417 438.816 112.806 437.098 114.595C436.759 117.265 438.882 118.675 440.221 120.425C448.057 130.662 455.11 141.376 460.15 153.289C462.784 159.515 461.157 161.589 454.523 162.131C447.173 162.733 442.436 160.426 439.075 153.329C434.568 143.814 428.184 135.335 421.522 127.094C418.468 123.316 415.773 122.473 411.266 124.268C392.377 131.794 372.819 137.383 353.561 143.847C345.34 146.607 337.428 146.587 329.327 144.324C326.289 143.475 322.459 143.18 322.274 138.817C322.084 134.31 325.789 133.2 329.05 132.187C338.746 129.177 348.567 126.561 358.234 123.464C371.557 119.196 384.793 114.652 398.043 110.158C399.617 109.624 401.468 109.414 402.675 107.365C400.432 103.689 396.773 101.203 393.399 98.559C363.547 75.1707 329.812 61.1146 292.036 57.149C248.894 52.62 208.511 61.2061 171.052 83.1897C169.894 83.8692 168.537 84.3887 167.66 85.3392C160.236 93.3817 152.97 89.8156 145.691 85.1723C141.178 82.294 141.055 80.9436 145.44 77.6405C158.531 67.779 172.763 59.9086 187.878 53.5834C215.112 42.1869 243.534 36.526 272.998 36.4369C286.806 36.3952 300.535 38.0109 314.561 40.9415Z" fill="black"/>
<path d="M174.285 314.713C175.139 297.509 179.614 282.476 193.518 271.697C213.507 256.2 245.203 259.878 260.913 279.525C265.29 284.999 265.446 290.681 261.322 294.468C257.204 298.251 251.812 297.56 246.693 292.166C239.419 284.502 230.673 279.998 220.098 281.104C205.305 282.652 196.258 291.167 194.294 306.037C191.506 327.148 195.903 346.281 213.909 359.831C225.672 368.683 239.19 369.894 253.361 366.773C261.324 365.02 267.188 370.466 265.66 377.857C264.656 382.71 260.955 384.593 256.574 385.444C219.27 392.688 187.579 374.558 177.58 337.346C175.638 330.119 174.694 322.714 174.285 314.713Z" fill="black"/>
<path d="M512.416 25.2104C486.455 22.3608 461.533 26.687 436.697 31.3158C421.279 34.1894 406.026 37.9483 390.7 41.3174C383.768 42.8414 379.244 40.97 378.057 36.0649C376.74 30.6209 379.574 26.0726 386.238 24.3185C409.926 18.0832 433.844 12.8769 458.112 9.42589C471.573 7.51167 485.075 5.96779 498.71 6.0717C507.375 6.13773 515.889 7.32213 524.221 9.6544C542.662 14.8163 549.734 31.587 540.699 48.4495C537.851 53.766 534.011 58.2567 529.511 62.1879C524.965 66.1595 520.386 66.2047 516.715 62.5219C513.079 58.8743 513.273 54.5236 517.305 49.7406C519.402 47.2531 521.732 44.9324 523.592 42.2812C529.027 34.537 527.349 29.5568 518.475 26.6597C516.66 26.0672 514.764 25.7219 512.416 25.2104Z" fill="black"/>
<path d="M334.747 582.818C334.043 585.285 333.488 587.312 332.832 589.306C330.87 595.277 326.51 598.028 321.264 596.651C315.872 595.237 313.311 590.859 314.974 584.47C317.519 574.686 320.468 565.002 323.416 555.328C325.476 548.57 327.701 541.857 330.066 535.2C333.026 526.868 337.745 524.039 344.064 526.506C349.025 528.443 350.161 533.737 347.697 541.377C343.302 555.003 339.12 568.697 334.747 582.818Z" fill="black"/>
<path d="M148.214 164.281C153.476 159.34 159.225 158.064 165.401 160.827C170.68 163.189 173.566 167.507 173.699 173.478C173.846 180.165 170.777 185.386 165.2 187.747C159.336 190.23 152.486 188.869 148.328 184.395C143.682 179.395 142.943 173.193 146.293 166.954C146.741 166.12 147.374 165.385 148.214 164.281Z" fill="black"/>
<path d="M503.358 65.1673C510.138 70.8802 511.923 78.5579 508.363 85.308C505.463 90.8056 498.839 93.8702 492.86 92.48C483.872 90.3904 478.769 82.1316 481.407 73.9425C484.509 64.3106 492.832 60.837 503.358 65.1673Z" fill="black"/>
</svg>
