<svg width="566" height="597" viewBox="0 0 566 597" fill="none" xmlns="http://www.w3.org/2000/svg">
<path d="M211.262 467.176C195.318 438.339 191.074 407.077 186.935 375.843C185.351 363.894 184.068 351.886 184.093 339.763C184.13 321.738 190.688 305.548 197.768 289.532C203.941 275.569 210.661 261.849 217.081 247.995C220.803 239.961 225.86 232.846 234.155 229.45C241.207 226.562 243.198 221.416 244.082 214.724C245.6 203.243 248.298 192.04 256.919 183.568C264.037 176.573 272.37 172.57 282.817 175.206C293.346 177.861 296.048 186.58 297.809 195.338C298.955 201.039 300.073 204.077 306.945 204.467C316.487 205.008 322.273 211.736 324.912 220.612C326.608 226.314 327.301 232.314 328.637 239.175C344.045 236.976 353.817 244.086 357.324 258.857C358.997 265.9 359.192 273.353 359.53 280.644C360.252 296.206 361.533 311.705 362.95 327.22C364.283 341.824 368.773 355.442 375.26 368.091C391.587 399.93 393.424 433.147 387.307 467.513C385.201 479.344 386.627 480.615 398.288 477.32C419.289 471.384 426.452 460.597 422.895 439.19C421.366 429.986 420.469 421.622 429.429 415.231C434.058 411.93 431.593 408.369 428.564 404.794C420.002 394.691 419.98 394.307 431.27 387.7C438.473 383.485 439.607 378.629 436.392 371.091C428.5 352.587 430.325 348.92 448.992 342.368C469.149 335.293 469.827 332.623 459.109 314.073C451.777 301.385 441.848 290.486 435.364 277.199C428.341 262.807 426.725 248.526 430.631 232.866C437.821 204.044 435.373 175.533 425.68 147.497C413.687 112.809 391.272 86.069 362.201 64.7055C328.567 39.989 290.308 27.9688 248.984 23.5287C209.538 19.2905 171.481 23.7338 135.075 38.9353C72.4551 65.083 35.5869 112.181 25.5979 179.438C17.7808 232.072 33.5305 279.367 60.7346 323.651C64.7323 330.159 69.1629 336.4 73.1567 342.91C81.7505 356.917 83.0954 371.449 76.067 386.58C74.2435 390.505 71.2693 394.152 72.1864 400.173C81.0604 402.059 88.6381 399.815 94.9473 393.085C96.8928 391.009 98.2704 388.41 100.143 386.255C105.543 380.041 109.789 380.597 112.529 388.323C115.178 395.788 117.834 403.403 119.109 411.178C128.609 469.123 116.269 522.989 87.9856 573.741C85.0426 579.023 82.2091 584.383 78.941 589.46C75.2319 595.221 70.4541 599.543 63.1439 595.284C55.7558 590.98 56.0518 585.051 59.8935 578.149C73.9983 552.807 87.0068 527.003 93.7097 498.465C99.6493 473.176 101.775 447.714 98.9474 421.844C98.2321 415.3 95.8853 412.572 89.0552 415.405C78.1461 419.929 66.9031 420.503 55.3961 417.604C44.3855 414.83 41.905 408.566 48.6157 399.722C65.0347 378.082 64.6603 364.772 48.9168 343.072C19.6737 302.763 1.43013 258.096 0.072107 207.805C-2.30255 119.866 54.1829 40.0107 138.789 13.8637C210.561 -8.31696 281.553 -4.61744 348.886 30.2907C406.86 60.3468 442.766 108.219 454.372 173.038C458.39 195.48 456.319 218.115 450.82 240.182C447.9 251.899 449.795 262.279 456.035 272.079C464.575 285.49 473.918 298.412 482.022 312.075C492.508 329.756 487.867 345.047 470.011 355.471C465.415 358.154 459.958 359.443 456.146 363.696C456.855 369.792 462.636 375.225 460.637 380.98C456.548 392.755 450.729 403.966 454.878 416.966C441.489 427.505 447.123 442.495 445.797 455.855C443.826 475.712 429.978 490.564 410.312 493.931C407.813 494.359 405.345 494.967 402.847 495.404C389.098 497.812 388.904 497.889 394.8 511.065C404.591 532.945 411.544 555.653 415.965 579.203C417.359 586.626 417.029 592.76 408.344 594.869C400.806 596.7 396.743 593.159 394.699 583.222C389.682 558.832 383.782 534.503 371.244 512.9C360.771 494.853 363.831 477.024 366.924 458.433C371.388 431.595 371.151 404.841 358.202 380.177C343.005 351.23 340.813 320.039 339.722 288.457C339.48 281.458 339.733 274.439 339.4 267.447C339.197 263.186 337.853 258.211 333.087 258.054C327.651 257.876 327.527 263.193 327.342 267.341C326.565 284.806 325.818 302.273 325.206 319.745C325.049 324.225 324.804 328.635 323.409 332.929C321.795 337.9 319.134 341.812 313.23 340.819C307.128 339.793 303.449 335.73 303.756 329.541C305.218 300.042 306.988 270.559 308.631 241.068C308.738 239.165 309.115 237.145 308.651 235.367C307.437 230.713 308.12 223.555 301.189 223.974C295.26 224.333 296.841 230.715 296.428 234.901C293.368 265.905 293.3 297.139 289.238 328.07C288.382 334.591 287.697 342.165 279.035 341.152C271.284 340.246 268.551 333.461 269.054 326.065C270.52 304.512 272.134 282.967 273.858 261.433C275.304 243.381 277.01 225.351 278.526 207.305C278.684 205.422 278.468 203.477 278.186 201.597C277.852 199.38 277.347 196.916 274.776 196.363C271.561 195.671 270.329 198.306 269.291 200.607C265.05 210.014 264.194 220.237 262.376 230.224C262.092 231.781 262.203 233.407 261.973 234.979C260.008 248.417 256.334 250.733 243.282 246.153C233.754 258.032 228.126 272.266 221.854 286.073C213.45 304.575 203.603 322.881 205.096 344.118C207.168 373.604 210.107 403.016 218.697 431.504C225.059 452.604 236.538 471.105 254.545 483.194C286.677 504.766 290.718 534.642 284.402 568.84C283.42 574.154 282.245 579.434 281.156 584.729C279.838 591.138 275.787 593.746 269.43 593.252C262.895 592.744 259.915 589.025 259.443 582.704C258.889 575.279 260.54 568.118 261.94 560.955C264.166 549.566 263.307 538.11 263.015 526.681C262.847 520.118 258.189 515.683 253.842 511.536C244.182 502.321 234.176 493.47 224.406 484.368C219.247 479.562 215.338 473.731 211.262 467.176Z" fill="black"/>
<path d="M154.203 302.813C157.823 306.888 160.964 310.481 164.269 313.916C167.836 317.625 170.75 321.589 166.372 326.296C162.377 330.591 157.249 330.677 152.432 327.745C142.633 321.78 135.751 312.845 130.427 303.052C117.176 278.681 111.697 253.401 126.904 227.821C142.959 200.817 176.516 197.94 195.743 221.419C197.537 223.609 199.087 226.09 200.299 228.65C203.136 234.648 205.52 241.765 198.834 245.843C191.911 250.066 188.269 243.042 184.521 238.468C177.995 230.503 171.649 221.864 159.408 225.108C148.767 227.928 141.067 240.027 139.864 253.071C138.175 271.378 142.43 287.77 154.203 302.813Z" fill="black"/>
<path d="M403.204 152.961C384.371 171.713 363.169 185.204 338.189 192.504C332.868 194.059 327.58 194.676 322.268 193.055C319.449 192.195 317.07 190.404 316.942 187.049C316.83 184.123 318.705 182.302 321.156 181.257C327.868 178.394 334.674 175.752 341.394 172.906C359.736 165.141 376.156 154.425 390.406 140.477C394.835 136.142 399.398 130.935 405.773 136.193C412.885 142.058 407.837 147.449 403.204 152.961Z" fill="black"/>
<path d="M519.927 156.308C532.231 156.454 543.622 156.204 554.944 158.09C560.356 158.991 565.405 160.628 565.959 166.584C566.523 172.639 561.156 174.447 556.466 175.252C537.508 178.503 518.675 177.312 500.088 172.524C496.312 171.551 494.29 168.668 494.735 164.631C495.147 160.904 497.85 159.192 501.192 158.667C507.11 157.738 513.07 157.073 519.927 156.308Z" fill="black"/>
<path d="M486.86 128.533C483.445 123.111 484.832 118.84 488.424 115.086C499.371 103.644 510.904 92.8276 523.613 83.3577C525.819 81.7135 528.68 80.7086 531.394 80.0472C534.879 79.1979 538.477 79.2829 540.466 83.1437C542.188 86.4865 540.903 89.3375 538.479 91.712C526.727 103.227 515.103 114.885 503.039 126.065C498.844 129.952 493.511 132.602 486.86 128.533Z" fill="black"/>
<path d="M470.446 93.9456C468.127 99.3093 465.451 103.682 459.534 101.412C454.086 99.3215 450.798 94.8994 451.649 88.7142C453.381 76.1235 455.533 63.6042 459.984 51.6089C461.804 46.7036 464.734 42.8114 470.426 43.9216C476.67 45.1392 478.185 50.7844 477.494 55.8192C475.772 68.3604 474.644 81.0607 470.446 93.9456Z" fill="black"/>
<path d="M223.167 332.942C224.285 323.256 224.893 314.343 227.668 305.847C229.548 300.09 232.688 294.97 239.777 296.118C246.856 297.265 247.224 303.377 246.758 308.791C245.753 320.468 244.354 332.124 242.678 343.724C241.87 349.318 238.569 353.015 232.25 352.478C226.129 351.959 223.303 348.273 223.07 342.392C222.958 339.54 223.115 336.678 223.167 332.942Z" fill="black"/>
<path d="M354.273 215.383C367.657 205.606 382.353 207.674 396.798 208.367C400.564 208.547 404.3 209.345 408.047 209.882C411.989 210.446 415.907 211.572 416.284 216.214C416.716 221.537 412.388 223.134 408.289 223.891C404.598 224.573 400.733 224.273 396.952 224.519C386.229 225.216 375.517 223.878 364.737 224.716C360.019 225.083 352.238 225.364 354.273 215.383Z" fill="black"/>
<path d="M393.953 273.681C391.309 271.846 389.237 270.373 387.364 268.68C384.322 265.931 380.427 263.097 381.811 258.47C383.27 253.591 388.186 252.855 392.575 252.058C393.806 251.834 395.1 251.93 396.365 251.923C407.295 251.866 413.633 256.641 412.797 264.29C411.925 272.272 405.753 275.55 393.953 273.681Z" fill="black"/>
</svg>
