<svg width="665" height="455" viewBox="0 0 665 455" fill="none" xmlns="http://www.w3.org/2000/svg">
<path d="M249.544 196.357C251.558 180.535 249.876 167.061 233.119 160.635C207.535 138.728 198.642 110.561 202.17 77.809C205.75 44.5825 222.889 20.9205 253.135 6.93666C263.546 2.12315 274.746 0.0217834 286.281 0.0254208C317.306 0.0351961 348.331 -0.050428 379.356 0.0472813C426.442 0.195531 463.168 37.3437 463.987 84.3388C464.382 106.976 460.913 128.045 446.582 146.19C430.053 167.118 408.747 179.147 381.616 179.4C362.589 179.578 343.558 179.495 324.53 179.376C320.818 179.352 317.872 180.289 314.945 182.711C300.453 194.704 285.732 206.42 271.206 218.374C266.557 222.199 261.687 224.394 255.853 221.763C249.969 219.109 249.315 213.802 249.521 208.14C249.657 204.423 249.546 200.698 249.544 196.357ZM302.482 167.608C308.483 161.839 315.52 159.686 323.931 159.869C343.162 160.287 362.418 160.379 381.646 159.9C404.899 159.321 422.66 148.631 434.974 128.91C444.061 114.357 445.11 98.2374 444.533 81.6725C443.368 48.2137 415.42 20.3521 381.979 20.0982C349.5 19.8515 317.018 20.085 284.538 20.0224C275.256 20.0046 266.454 21.9458 258.18 26.0461C233.206 38.4221 221.663 59.5231 220.674 86.4811C219.614 115.348 230.087 138.88 256.593 152.817C265.548 157.525 269.485 163.426 268.909 173.352C268.523 180.004 268.196 186.785 269.52 194.677C280.805 185.406 291.298 176.785 302.482 167.608Z" fill="black"/>
<path d="M543.93 160.166C577.678 164.027 600.566 180.992 611.016 213.132C625.084 256.401 593.457 302.946 548.216 307.494C510.091 311.327 468.73 283.789 467.476 236.306C466.262 190.339 503.289 159.343 543.93 160.166ZM551.426 180.929C547.322 180.503 543.181 179.491 539.119 179.745C507.636 181.715 484.083 207.748 487.074 240.087C489.549 266.848 515.157 295.785 553.692 286.825C579.006 280.939 595.062 259.279 594.894 233.883C594.725 208.276 578.195 187.793 551.426 180.929Z" fill="black"/>
<path d="M196.985 222.273C204.862 262.727 173.336 303.64 132.789 307.427C93.5412 311.092 60.8507 285.399 53.0091 249.783C44.4585 210.947 69.4608 168.543 113.248 161.403C153.312 154.87 189.467 181.261 196.985 222.273ZM159.139 192.061C146.774 182.649 133.121 178.261 117.408 180.414C85.9628 184.722 64.2768 215.533 71.9876 246.877C79.3952 276.988 107.774 295.118 140.046 286.274C160.548 280.656 173.682 266.128 177.895 245.082C182.032 224.41 175.676 206.726 159.139 192.061Z" fill="black"/>
<path d="M422.81 385.634C440.27 344.317 474.139 321.499 518.334 321.582C538.993 321.62 559.732 319.957 580.309 322.664C623.659 328.365 658.266 363.656 663.996 407.14C665.656 419.737 664.717 432.319 664.884 444.905C664.968 451.226 661.121 454.947 655.523 454.998C650.043 455.047 646.134 451.227 645.849 445.073C645.264 432.493 646.473 419.885 644.582 407.306C639.494 373.476 610.038 344.704 576.044 342.004C550.091 339.943 523.839 338.278 498.153 343.337C463.814 350.099 439.873 378.189 436.173 412.89C435.048 423.433 435.642 433.953 435.307 444.479C435.093 451.201 432.191 454.65 426.446 454.963C420.819 455.271 416.674 451.863 416.503 445.467C415.967 425.431 415.257 405.32 422.81 385.634Z" fill="black"/>
<path d="M211.832 343.572C237.214 364.419 248.473 391.33 248.732 423.285C248.789 430.316 248.914 437.356 248.654 444.379C248.403 451.153 244.63 455.053 239 454.999C233.31 454.945 229.912 450.998 229.629 444.193C229.157 432.849 230.606 421.448 228.644 410.149C221.472 368.841 193.814 343.492 151.518 341.19C131.331 340.09 110.977 339.682 90.7628 341.765C54.2784 345.524 25.9576 372.791 20.3614 408.861C18.601 420.208 19.5216 431.561 19.2264 442.911C19.0236 450.713 15.8181 454.942 9.83992 454.983C3.8518 455.025 0.177917 450.722 0.0848736 443.123C-0.142883 424.519 -0.361735 405.996 5.84556 387.954C18.6285 350.797 53.2588 323.591 92.9971 321.878C116.305 320.874 139.77 320.056 163.056 322.614C181.132 324.6 197.257 331.92 211.832 343.572Z" fill="black"/>
</svg>
