<svg width="231" height="559" viewBox="0 0 231 559" fill="none" xmlns="http://www.w3.org/2000/svg">
<path d="M229.557 387.997C230.863 414.213 219.884 426.994 194.39 428.095C184.146 428.538 182.321 433.362 177.624 441.563C163.804 465.691 176.445 488.514 177.374 511.636C178.684 544.196 166.314 560.439 134.356 558.9C94.2307 556.968 57.7814 543.253 27.6233 516.079C4.24317 495.012 2.3275 473.6 19.9642 447.344C24.6443 440.377 27.3709 434.193 24.4696 425.405C20.5596 413.562 24.5501 402.575 33.1623 394.072C39.6906 387.626 41.8132 381.782 37.1454 373.259C30.8956 361.848 32.0566 350.194 39.1713 339.468C43.3807 333.122 44.6256 327.316 40.8047 320.195C36.4918 312.157 37.2689 303.457 42.2049 296.083C47.9784 287.458 47.6265 279.742 42.2096 271.345C40.3848 268.517 39.9416 264.823 38.6708 261.602C33.4371 248.336 50.1192 238.448 45.7282 227.425C40.8118 215.084 37.4238 204.077 43.7979 192.119C48.0164 184.205 43.9234 178.999 39.7265 173.408C31.5979 162.579 31.4523 152.654 33.9898 138.279C36.6165 123.399 27.9094 105.693 26.3824 88.7614C26.225 87.0172 21.6065 85.7139 19.0998 84.1392C-4.70979 69.1831 -6.80475 38.4003 15.896 21.9094C39.1476 5.0181 66.6908 0.268107 94.6273 0.0016578C109.685 -0.141942 116.949 9.04775 116.594 25.8972C116.34 37.931 120.795 42.0632 132.23 41.0918C139.598 40.466 147.107 40.334 154.463 40.9919C171.129 42.4825 181.881 50.6736 183.721 63.6414C185.786 78.1994 176.921 87.7643 165.35 92.8946C142.765 102.908 160.356 118.51 159.232 131.154C158.275 141.93 169.463 139.993 176.078 140.712C197.869 143.08 206.646 148.225 209.059 161.604C212.233 179.192 207.251 186.694 185.59 197.113C184.315 197.726 183.279 198.835 181.285 200.362C187.078 213.867 181.118 226.924 177.933 240.052C185.314 245.853 192.908 242.575 199.991 242.705C217.657 243.03 226.794 250.165 230.229 267.088C233.398 282.706 226.732 295.458 211.513 301.536C204.236 304.443 196.515 306.236 187.871 308.877C189.722 322.745 185.681 335.474 178.988 347.925C173.213 358.667 180.012 362.255 189.754 362.395C207.817 362.657 223.254 367.051 229.557 387.997ZM193.616 384.146C189.676 383.887 185.729 383.708 181.797 383.356C160.866 381.483 154.414 374.056 155.044 352.744C155.099 350.885 154.782 349.015 154.658 347.405C148.958 344.166 143.454 345.766 138.137 345.659C118.412 345.265 98.6228 345.8 78.977 344.357C61.809 343.096 52.2553 353.714 60.0554 369.283C66.789 382.722 63.6544 392.334 54.6264 402.748C41.8735 417.458 44.4549 427.406 63.1328 432.984C85.3216 439.612 107.994 444.139 131.401 445.059C146.986 445.671 155.221 441.513 156.275 424.27C157.176 409.534 164.855 405.531 179.889 407.787C184.708 408.51 189.856 409.327 194.5 408.374C201.088 407.023 209.211 405.453 209.729 396.82C210.247 388.187 203.519 385.348 193.616 384.146ZM128.487 240.563C113.246 241.951 98.1271 244.412 82.712 244.166C61.0414 243.821 57.6662 249.377 67.0614 268.596C71.2569 277.179 74.9603 285.381 69.625 295.256C60.036 313.004 63.4283 319.617 83.4515 322.499C107.514 325.962 131.673 325.148 155.821 322.963C161.38 322.46 166.485 320.661 165.787 314.548C163.229 292.147 176.162 286.05 194.923 285.204C197.822 285.074 200.887 284.332 203.496 283.08C207.762 281.034 210.761 277.605 209.675 272.428C208.775 268.139 205.717 265.551 201.376 265.081C197.957 264.711 194.472 264.776 191.024 264.892C162.413 265.85 159.475 263.671 152.388 235.201C145.286 236.803 138.129 238.417 128.487 240.563ZM158.396 186.126C164.245 179.693 172.935 180.55 180.17 177.668C184 176.143 188.097 174.467 188.201 169.99C188.331 164.389 183.266 162.686 178.994 162.016C172.684 161.025 166.202 161.075 159.787 160.829C142.698 160.176 136.893 155.162 134.193 138.454C133.724 135.548 133.904 132.458 129.651 128.899C110.401 132.965 89.7169 136.984 69.2129 141.778C53.0046 145.566 51.3841 149.114 60.5525 162.764C68.6561 174.829 72.1232 186.167 64.6268 199.996C59.0413 210.301 63.7859 217.291 74.9272 219.255C92.2159 222.303 109.357 219.822 126.398 216.75C134.659 215.261 143.209 214.431 151.024 211.618C163.444 207.149 150.519 194.815 158.396 186.126ZM153.066 488.597C150.855 472.359 142.373 465.098 125.248 465.442C100.917 465.931 77.1234 460.848 54.1373 452.822C46.3318 450.096 42.1757 452.805 38.6484 459.416C29.6964 476.193 33.3338 491.67 49.9638 505.168C73.8324 524.543 101.929 533.34 131.849 536.723C146.649 538.397 154.016 531.23 154.368 516.321C154.566 507.925 153.891 499.507 153.066 488.597ZM96.6811 48.8793C93.6556 43.3434 94.5597 37.2703 94.5126 31.3928C94.4575 24.5376 91.2563 20.7871 84.5603 21.6819C67.9433 23.9023 51.0238 25.4052 35.8657 33.4156C28.7946 37.1522 22.0121 42.2373 22.5343 51.4773C23.0465 60.5398 29.7668 64.9125 37.3776 68.28C56.7366 76.8455 57.2305 77.9897 52.727 99.7547C49.8856 113.487 54.0442 118.868 68.0004 117.161C85.6187 115.006 103.08 111.564 120.611 108.685C127.027 107.632 129.79 104.828 128.588 97.4981C126.832 86.7937 133.111 81.2331 143.059 78.6197C149.934 76.8138 158.216 76.1841 159.166 65.5216C148.625 58.7627 137.125 63.1871 126.248 63.2376C114.65 63.2913 104.605 61.4885 96.6811 48.8793Z" fill="black"/>
</svg>
